# xmcd
#
# Track frame offsets: 
#        150
#        3229
#        20159
#        45929
#        66227
#        84963
#        105536
#        126330
#        142991
#        169174
#        195939
#        214541
#        242754
#
# Disc length: 3673 seconds
#
# Revision: 3
# Processed by: cddbd v1.5.2PL0 Copyright (c) Steve Scherf et al.
# Submitted via: ExactAudioCopy v1.0b2
#
DISCID=a20e570d
DTITLE=Brian Stoltz - East Of Rampart Street
DYEAR=2002
DGENRE=Funk
TTITLE0=Jungle Funk
TTITLE1=Hoodoo Thing
TTITLE2=Seven Desires
TTITLE3=Down
TTITLE4=Funky Forever
TTITLE5=I Been Up All Night
TTITLE6=Norma's House
TTITLE7=My Debbie Lou
TTITLE8=This Old World
TTITLE9=Fearless
TTITLE10=Tangled, Twisted and Tossed
TTITLE11=Our Own Tears
TTITLE12=Take Your Heart Away
EXTD=
EXTT0=
EXTT1=
EXTT2=
EXTT3=
EXTT4=
EXTT5=
EXTT6=
EXTT7=
EXTT8=
EXTT9=
EXTT10=
EXTT11=
EXTT12=
PLAYORDER=
